<mxfile host="app.diagrams.net" agent="Mozilla/5.0 (Windows NT 10.0; Win64; x64) AppleWebKit/537.36 (KHTML, like Gecko) Chrome/131.0.0.0 Safari/537.36" version="25.0.3">
  <diagram id="gkANINyZUyBZDDwI3h0A" name="Page-1">
    <mxGraphModel dx="2710" dy="867" grid="1" gridSize="10" guides="1" tooltips="1" connect="1" arrows="1" fold="1" page="1" pageScale="1" pageWidth="850" pageHeight="1100" math="0" shadow="0">
      <root>
        <mxCell id="0" />
        <mxCell id="1" parent="0" />
        <mxCell id="rugPiEAVBKEIt9bjCJ1i-79" style="edgeStyle=orthogonalEdgeStyle;rounded=0;orthogonalLoop=1;jettySize=auto;html=1;" edge="1" parent="1" source="rugPiEAVBKEIt9bjCJ1i-35" target="rugPiEAVBKEIt9bjCJ1i-65">
          <mxGeometry relative="1" as="geometry" />
        </mxCell>
        <mxCell id="rugPiEAVBKEIt9bjCJ1i-35" value="Tenancy" style="strokeWidth=2;html=1;shape=mxgraph.flowchart.database;whiteSpace=wrap;" vertex="1" parent="1">
          <mxGeometry x="310" y="175" width="70" height="70" as="geometry" />
        </mxCell>
        <mxCell id="rugPiEAVBKEIt9bjCJ1i-37" value="Lifestyle" style="strokeWidth=2;html=1;shape=mxgraph.flowchart.database;whiteSpace=wrap;" vertex="1" parent="1">
          <mxGeometry x="310" y="520" width="70" height="70" as="geometry" />
        </mxCell>
        <mxCell id="rugPiEAVBKEIt9bjCJ1i-92" style="edgeStyle=orthogonalEdgeStyle;rounded=0;orthogonalLoop=1;jettySize=auto;html=1;exitX=1.009;exitY=0.438;exitDx=0;exitDy=0;exitPerimeter=0;entryX=0;entryY=0.5;entryDx=0;entryDy=0;" edge="1" parent="1" source="rugPiEAVBKEIt9bjCJ1i-38" target="rugPiEAVBKEIt9bjCJ1i-90">
          <mxGeometry relative="1" as="geometry" />
        </mxCell>
        <mxCell id="rugPiEAVBKEIt9bjCJ1i-38" value="&lt;div&gt;&lt;br&gt;&lt;/div&gt;Family composition" style="strokeWidth=2;html=1;shape=mxgraph.flowchart.database;whiteSpace=wrap;" vertex="1" parent="1">
          <mxGeometry y="295" width="70" height="70" as="geometry" />
        </mxCell>
        <mxCell id="rugPiEAVBKEIt9bjCJ1i-39" value="Services" style="strokeWidth=2;html=1;shape=mxgraph.flowchart.database;whiteSpace=wrap;" vertex="1" parent="1">
          <mxGeometry x="310" y="60" width="70" height="70" as="geometry" />
        </mxCell>
        <mxCell id="rugPiEAVBKEIt9bjCJ1i-40" value="&lt;div&gt;&lt;br&gt;&lt;/div&gt;House&lt;div&gt;Urban/rural&lt;/div&gt;" style="strokeWidth=2;html=1;shape=mxgraph.flowchart.database;whiteSpace=wrap;" vertex="1" parent="1">
          <mxGeometry y="70" width="70" height="70" as="geometry" />
        </mxCell>
        <mxCell id="rugPiEAVBKEIt9bjCJ1i-41" value="Education" style="strokeWidth=2;html=1;shape=mxgraph.flowchart.database;whiteSpace=wrap;" vertex="1" parent="1">
          <mxGeometry y="405" width="70" height="70" as="geometry" />
        </mxCell>
        <mxCell id="rugPiEAVBKEIt9bjCJ1i-43" value="Individuals" style="text;html=1;align=center;verticalAlign=middle;resizable=0;points=[];autosize=1;strokeColor=none;fillColor=none;" vertex="1" parent="1">
          <mxGeometry x="-5" y="250" width="80" height="30" as="geometry" />
        </mxCell>
        <mxCell id="rugPiEAVBKEIt9bjCJ1i-44" value="&lt;div&gt;&lt;br&gt;&lt;/div&gt;Max. Age&lt;div&gt;Min. Age&lt;/div&gt;" style="strokeWidth=2;html=1;shape=mxgraph.flowchart.database;whiteSpace=wrap;" vertex="1" parent="1">
          <mxGeometry x="310" y="291.19" width="70" height="70" as="geometry" />
        </mxCell>
        <mxCell id="rugPiEAVBKEIt9bjCJ1i-46" value="&lt;div&gt;&lt;br&gt;&lt;/div&gt;Max.&lt;div&gt;Education&lt;/div&gt;" style="strokeWidth=2;html=1;shape=mxgraph.flowchart.database;whiteSpace=wrap;" vertex="1" parent="1">
          <mxGeometry x="310" y="405" width="70" height="70" as="geometry" />
        </mxCell>
        <mxCell id="rugPiEAVBKEIt9bjCJ1i-117" style="edgeStyle=orthogonalEdgeStyle;rounded=0;orthogonalLoop=1;jettySize=auto;html=1;exitX=1;exitY=0.5;exitDx=0;exitDy=0;exitPerimeter=0;entryX=0.5;entryY=0;entryDx=0;entryDy=0;" edge="1" parent="1" source="rugPiEAVBKEIt9bjCJ1i-49" target="rugPiEAVBKEIt9bjCJ1i-116">
          <mxGeometry relative="1" as="geometry" />
        </mxCell>
        <mxCell id="rugPiEAVBKEIt9bjCJ1i-49" value="&lt;div&gt;&lt;br&gt;&lt;/div&gt;&lt;div&gt;Main&lt;/div&gt;Database" style="strokeWidth=2;html=1;shape=mxgraph.flowchart.database;whiteSpace=wrap;" vertex="1" parent="1">
          <mxGeometry x="580" y="290" width="70" height="70" as="geometry" />
        </mxCell>
        <mxCell id="rugPiEAVBKEIt9bjCJ1i-56" value="House" style="text;html=1;align=center;verticalAlign=middle;resizable=0;points=[];autosize=1;strokeColor=none;fillColor=none;" vertex="1" parent="1">
          <mxGeometry x="5" y="20" width="60" height="30" as="geometry" />
        </mxCell>
        <mxCell id="rugPiEAVBKEIt9bjCJ1i-57" value="Family" style="text;html=1;align=center;verticalAlign=middle;resizable=0;points=[];autosize=1;strokeColor=none;fillColor=none;" vertex="1" parent="1">
          <mxGeometry x="315" y="20" width="60" height="30" as="geometry" />
        </mxCell>
        <mxCell id="rugPiEAVBKEIt9bjCJ1i-69" value="" style="group" vertex="1" connectable="0" parent="1">
          <mxGeometry x="420" y="295" width="110" height="70" as="geometry" />
        </mxCell>
        <mxCell id="rugPiEAVBKEIt9bjCJ1i-66" value="" style="strokeWidth=2;html=1;shape=mxgraph.flowchart.merge_or_storage;whiteSpace=wrap;" vertex="1" parent="rugPiEAVBKEIt9bjCJ1i-69">
          <mxGeometry width="110.00000000000001" height="70" as="geometry" />
        </mxCell>
        <mxCell id="rugPiEAVBKEIt9bjCJ1i-65" value="&lt;font style=&quot;font-size: 10px;&quot;&gt;Merge by&lt;/font&gt;&lt;div&gt;&lt;font style=&quot;font-size: 10px;&quot;&gt;family code&lt;/font&gt;&lt;/div&gt;" style="text;html=1;align=center;verticalAlign=middle;resizable=0;points=[];autosize=1;strokeColor=none;fillColor=none;" vertex="1" parent="rugPiEAVBKEIt9bjCJ1i-69">
          <mxGeometry x="20.00368421052632" width="70" height="40" as="geometry" />
        </mxCell>
        <mxCell id="rugPiEAVBKEIt9bjCJ1i-75" style="edgeStyle=orthogonalEdgeStyle;rounded=0;orthogonalLoop=1;jettySize=auto;html=1;exitX=1;exitY=0.5;exitDx=0;exitDy=0;exitPerimeter=0;entryX=0.5;entryY=1;entryDx=0;entryDy=0;entryPerimeter=0;" edge="1" parent="1" source="rugPiEAVBKEIt9bjCJ1i-46" target="rugPiEAVBKEIt9bjCJ1i-66">
          <mxGeometry relative="1" as="geometry" />
        </mxCell>
        <mxCell id="rugPiEAVBKEIt9bjCJ1i-77" style="edgeStyle=orthogonalEdgeStyle;rounded=0;orthogonalLoop=1;jettySize=auto;html=1;exitX=1;exitY=0.5;exitDx=0;exitDy=0;exitPerimeter=0;entryX=0.5;entryY=1;entryDx=0;entryDy=0;entryPerimeter=0;" edge="1" parent="1" source="rugPiEAVBKEIt9bjCJ1i-37" target="rugPiEAVBKEIt9bjCJ1i-66">
          <mxGeometry relative="1" as="geometry" />
        </mxCell>
        <mxCell id="rugPiEAVBKEIt9bjCJ1i-81" style="edgeStyle=orthogonalEdgeStyle;rounded=0;orthogonalLoop=1;jettySize=auto;html=1;exitX=1;exitY=0.5;exitDx=0;exitDy=0;exitPerimeter=0;" edge="1" parent="1" source="rugPiEAVBKEIt9bjCJ1i-39" target="rugPiEAVBKEIt9bjCJ1i-65">
          <mxGeometry relative="1" as="geometry" />
        </mxCell>
        <mxCell id="rugPiEAVBKEIt9bjCJ1i-83" style="edgeStyle=orthogonalEdgeStyle;rounded=0;orthogonalLoop=1;jettySize=auto;html=1;entryX=0.036;entryY=0.583;entryDx=0;entryDy=0;entryPerimeter=0;" edge="1" parent="1" source="rugPiEAVBKEIt9bjCJ1i-66" target="rugPiEAVBKEIt9bjCJ1i-49">
          <mxGeometry relative="1" as="geometry" />
        </mxCell>
        <mxCell id="rugPiEAVBKEIt9bjCJ1i-88" value="" style="group" vertex="1" connectable="0" parent="1">
          <mxGeometry x="140" y="411.19" width="96" height="60" as="geometry" />
        </mxCell>
        <mxCell id="rugPiEAVBKEIt9bjCJ1i-87" value="" style="verticalLabelPosition=bottom;verticalAlign=top;html=1;shape=hexagon;perimeter=hexagonPerimeter2;arcSize=6;size=0.27;" vertex="1" parent="rugPiEAVBKEIt9bjCJ1i-88">
          <mxGeometry y="2.38" width="80" height="47.62" as="geometry" />
        </mxCell>
        <mxCell id="rugPiEAVBKEIt9bjCJ1i-61" value="&lt;font style=&quot;font-size: 8px;&quot;&gt;Aggregate by&amp;nbsp;&lt;/font&gt;&lt;div&gt;&lt;font style=&quot;font-size: 8px;&quot;&gt;house&amp;nbsp;&lt;/font&gt;&lt;span style=&quot;font-size: 8px; background-color: initial;&quot;&gt;and&amp;nbsp;&lt;/span&gt;&lt;/div&gt;&lt;div&gt;&lt;span style=&quot;font-size: 8px; background-color: initial;&quot;&gt;family code&lt;/span&gt;&lt;/div&gt;" style="text;html=1;align=left;verticalAlign=middle;resizable=0;points=[];autosize=1;strokeColor=none;fillColor=none;" vertex="1" parent="rugPiEAVBKEIt9bjCJ1i-88">
          <mxGeometry x="16" y="-3.81" width="70" height="60" as="geometry" />
        </mxCell>
        <mxCell id="rugPiEAVBKEIt9bjCJ1i-89" value="" style="group" vertex="1" connectable="0" parent="1">
          <mxGeometry x="140" y="300" width="96" height="60" as="geometry" />
        </mxCell>
        <mxCell id="rugPiEAVBKEIt9bjCJ1i-90" value="" style="verticalLabelPosition=bottom;verticalAlign=top;html=1;shape=hexagon;perimeter=hexagonPerimeter2;arcSize=6;size=0.27;" vertex="1" parent="rugPiEAVBKEIt9bjCJ1i-89">
          <mxGeometry y="2.380952380952381" width="80" height="47.61904761904761" as="geometry" />
        </mxCell>
        <mxCell id="rugPiEAVBKEIt9bjCJ1i-91" value="&lt;font style=&quot;font-size: 8px;&quot;&gt;Aggregate by&amp;nbsp;&lt;/font&gt;&lt;div&gt;&lt;font style=&quot;font-size: 8px;&quot;&gt;house&amp;nbsp;&lt;/font&gt;&lt;span style=&quot;font-size: 8px; background-color: initial;&quot;&gt;and&amp;nbsp;&lt;/span&gt;&lt;/div&gt;&lt;div&gt;&lt;span style=&quot;font-size: 8px; background-color: initial;&quot;&gt;family code&lt;/span&gt;&lt;/div&gt;" style="text;html=1;align=left;verticalAlign=middle;resizable=0;points=[];autosize=1;strokeColor=none;fillColor=none;" vertex="1" parent="rugPiEAVBKEIt9bjCJ1i-89">
          <mxGeometry x="16" y="-3.81" width="70" height="60" as="geometry" />
        </mxCell>
        <mxCell id="rugPiEAVBKEIt9bjCJ1i-94" style="edgeStyle=orthogonalEdgeStyle;rounded=0;orthogonalLoop=1;jettySize=auto;html=1;exitX=1;exitY=0.5;exitDx=0;exitDy=0;exitPerimeter=0;entryX=0;entryY=0.537;entryDx=0;entryDy=0;entryPerimeter=0;" edge="1" parent="1" source="rugPiEAVBKEIt9bjCJ1i-41" target="rugPiEAVBKEIt9bjCJ1i-87">
          <mxGeometry relative="1" as="geometry" />
        </mxCell>
        <mxCell id="rugPiEAVBKEIt9bjCJ1i-96" style="edgeStyle=orthogonalEdgeStyle;rounded=0;orthogonalLoop=1;jettySize=auto;html=1;entryX=0.007;entryY=0.474;entryDx=0;entryDy=0;entryPerimeter=0;" edge="1" parent="1" source="rugPiEAVBKEIt9bjCJ1i-61" target="rugPiEAVBKEIt9bjCJ1i-46">
          <mxGeometry relative="1" as="geometry" />
        </mxCell>
        <mxCell id="rugPiEAVBKEIt9bjCJ1i-98" value="" style="group" vertex="1" connectable="0" parent="1">
          <mxGeometry x="126" y="70" width="110" height="70" as="geometry" />
        </mxCell>
        <mxCell id="rugPiEAVBKEIt9bjCJ1i-99" value="" style="strokeWidth=2;html=1;shape=mxgraph.flowchart.merge_or_storage;whiteSpace=wrap;" vertex="1" parent="rugPiEAVBKEIt9bjCJ1i-98">
          <mxGeometry width="110.00000000000001" height="70" as="geometry" />
        </mxCell>
        <mxCell id="rugPiEAVBKEIt9bjCJ1i-100" value="&lt;font style=&quot;font-size: 10px;&quot;&gt;Merge by&lt;/font&gt;&lt;div&gt;&lt;font style=&quot;font-size: 10px;&quot;&gt;family code&lt;/font&gt;&lt;/div&gt;" style="text;html=1;align=center;verticalAlign=middle;resizable=0;points=[];autosize=1;strokeColor=none;fillColor=none;" vertex="1" parent="rugPiEAVBKEIt9bjCJ1i-98">
          <mxGeometry x="20.00368421052632" width="70" height="40" as="geometry" />
        </mxCell>
        <mxCell id="rugPiEAVBKEIt9bjCJ1i-103" style="edgeStyle=orthogonalEdgeStyle;rounded=0;orthogonalLoop=1;jettySize=auto;html=1;entryX=1;entryY=0.5;entryDx=0;entryDy=0;entryPerimeter=0;" edge="1" parent="1" source="rugPiEAVBKEIt9bjCJ1i-99" target="rugPiEAVBKEIt9bjCJ1i-40">
          <mxGeometry relative="1" as="geometry" />
        </mxCell>
        <mxCell id="rugPiEAVBKEIt9bjCJ1i-104" style="edgeStyle=orthogonalEdgeStyle;rounded=0;orthogonalLoop=1;jettySize=auto;html=1;entryX=-0.002;entryY=0.637;entryDx=0;entryDy=0;entryPerimeter=0;" edge="1" parent="1" source="rugPiEAVBKEIt9bjCJ1i-99" target="rugPiEAVBKEIt9bjCJ1i-39">
          <mxGeometry relative="1" as="geometry" />
        </mxCell>
        <mxCell id="rugPiEAVBKEIt9bjCJ1i-105" style="edgeStyle=orthogonalEdgeStyle;rounded=0;orthogonalLoop=1;jettySize=auto;html=1;entryX=0;entryY=0.5;entryDx=0;entryDy=0;entryPerimeter=0;" edge="1" parent="1" source="rugPiEAVBKEIt9bjCJ1i-91" target="rugPiEAVBKEIt9bjCJ1i-44">
          <mxGeometry relative="1" as="geometry" />
        </mxCell>
        <mxCell id="rugPiEAVBKEIt9bjCJ1i-108" style="edgeStyle=orthogonalEdgeStyle;rounded=0;orthogonalLoop=1;jettySize=auto;html=1;exitX=1;exitY=0.55;exitDx=0;exitDy=0;exitPerimeter=0;" edge="1" parent="1" source="rugPiEAVBKEIt9bjCJ1i-44" target="rugPiEAVBKEIt9bjCJ1i-66">
          <mxGeometry relative="1" as="geometry">
            <mxPoint x="430" y="330" as="sourcePoint" />
          </mxGeometry>
        </mxCell>
        <mxCell id="rugPiEAVBKEIt9bjCJ1i-119" style="edgeStyle=orthogonalEdgeStyle;rounded=0;orthogonalLoop=1;jettySize=auto;html=1;exitX=0.5;exitY=1;exitDx=0;exitDy=0;entryX=0.5;entryY=0;entryDx=0;entryDy=0;" edge="1" parent="1" source="rugPiEAVBKEIt9bjCJ1i-116" target="rugPiEAVBKEIt9bjCJ1i-118">
          <mxGeometry relative="1" as="geometry" />
        </mxCell>
        <mxCell id="rugPiEAVBKEIt9bjCJ1i-116" value="&lt;font style=&quot;font-size: 9px;&quot;&gt;Change the name of columns&lt;/font&gt;" style="verticalLabelPosition=middle;verticalAlign=middle;html=1;shape=trapezoid;perimeter=trapezoidPerimeter;whiteSpace=wrap;size=0.23;arcSize=10;flipV=1;labelPosition=center;align=center;" vertex="1" parent="1">
          <mxGeometry x="690" y="80" width="110" height="60" as="geometry" />
        </mxCell>
        <mxCell id="rugPiEAVBKEIt9bjCJ1i-118" value="&lt;font style=&quot;font-size: 9px;&quot;&gt;Filter by homes with electricity or gas connections&lt;/font&gt;" style="verticalLabelPosition=middle;verticalAlign=middle;html=1;shape=trapezoid;perimeter=trapezoidPerimeter;whiteSpace=wrap;size=0.23;arcSize=10;flipV=1;labelPosition=center;align=center;" vertex="1" parent="1">
          <mxGeometry x="690" y="200" width="110" height="60" as="geometry" />
        </mxCell>
        <mxCell id="rugPiEAVBKEIt9bjCJ1i-121" style="edgeStyle=orthogonalEdgeStyle;rounded=0;orthogonalLoop=1;jettySize=auto;html=1;exitX=0.5;exitY=1;exitDx=0;exitDy=0;" edge="1" parent="1" source="rugPiEAVBKEIt9bjCJ1i-118" target="rugPiEAVBKEIt9bjCJ1i-120">
          <mxGeometry relative="1" as="geometry" />
        </mxCell>
        <mxCell id="rugPiEAVBKEIt9bjCJ1i-120" value="&lt;font style=&quot;font-size: 9px;&quot;&gt;Drop nan values&lt;/font&gt;" style="verticalLabelPosition=middle;verticalAlign=middle;html=1;shape=trapezoid;perimeter=trapezoidPerimeter;whiteSpace=wrap;size=0.23;arcSize=10;flipV=1;labelPosition=center;align=center;" vertex="1" parent="1">
          <mxGeometry x="690" y="296.19" width="110" height="60" as="geometry" />
        </mxCell>
      </root>
    </mxGraphModel>
  </diagram>
</mxfile>
